Coordinates
version=1
nRows=16
nColumns=40
inDegrees=yes

Units are S.I. units (second, meters, Newtons, ...)
If the header above contains a line with 'inDegrees', this indicates whether rotational values are in degrees (yes) or radians (no).

endheader
time	pelvis_tilt	pelvis_list	pelvis_rotation	pelvis_tx	pelvis_ty	pelvis_tz	hip_flexion_r	hip_adduction_r	hip_rotation_r	knee_angle_r	knee_angle_r_beta	ankle_angle_r	subtalar_angle_r	mtp_angle_r	hip_flexion_l	hip_adduction_l	hip_rotation_l	knee_angle_l	knee_angle_l_beta	ankle_angle_l	subtalar_angle_l	mtp_angle_l	lumbar_extension	lumbar_bending	lumbar_rotation	arm_flex_r	arm_add_r	arm_rot_r	elbow_flex_r	pro_sup_r	wrist_flex_r	wrist_dev_r	arm_flex_l	arm_add_l	arm_rot_l	elbow_flex_l	pro_sup_l	wrist_flex_l	wrist_dev_l
      3.88333333	    -31.48504784	     -8.08543842	      3.22305510	     -0.30424471	      1.19486844	      0.03798511	     83.47153471	     -7.01148707	     -5.26127880	     63.72231317	      1.11216417	      0.04139772	    -19.66034685	      0.00000000	     70.94544611	     -5.43402847	     12.62872023	     74.77444414	      1.30506025	     -1.76733993	    -19.06458479	      0.00000000	    -46.10809473	     12.09776506	      4.05425346	     89.88521095	     -7.12009176	      9.32220675	     36.51553037	     86.37893490	      0.00000000	      0.00000000	     89.92730507	     -7.43679621	     22.21471582	     28.72310616	     78.09352204	      0.00000000	      0.00000000
      3.89166667	    -31.08759782	     -8.37852662	      3.86415209	     -0.30415971	      1.19455311	      0.03802843	     81.08676278	     -7.27234840	     -6.18822060	     60.26270793	      1.05178267	     -1.92914181	    -19.79368243	      0.00000000	     72.52284609	     -4.98868068	     13.19249493	     78.32178107	      1.36697296	     -1.13537288	    -18.20380610	      0.00000000	    -46.40162987	     12.56166601	      3.87316387	     89.88130046	     -7.13522955	      9.00650252	     36.46126482	     86.36929419	      0.00000000	      0.00000000	     89.92758103	     -7.46231725	     22.43045249	     29.02624506	     78.18484527	      0.00000000	      0.00000000
      3.90000000	    -30.62170060	     -8.30372234	      4.48672060	     -0.30382286	      1.19426173	      0.03793527	     78.63594154	     -7.59557983	     -6.78019014	     56.91291703	      0.99331779	     -3.70224606	    -19.56122050	      0.00000000	     73.95289200	     -4.37390090	     13.39533872	     81.74143193	      1.42665712	     -0.58395750	    -17.49156630	      0.00000000	    -46.71926074	     12.71913647	      3.40254668	     89.87849781	     -7.12954744	      8.91608858	     36.27383960	     86.37190862	      0.00000000	      0.00000000	     89.92827096	     -7.49958312	     22.50363474	     29.24152135	     78.22238562	      0.00000000	      0.00000000
      3.90833333	    -30.24754589	     -7.74826720	      5.06925071	     -0.30359522	      1.19398377	      0.03757002	     76.33260384	     -8.12065493	     -7.01173505	     53.69401077	      0.93713728	     -5.55295021	    -18.88079170	      0.00000000	     75.28583256	     -3.56189728	     13.06087883	     84.86489074	      1.48117176	     -0.04287301	    -17.31745079	      0.00000000	    -46.92415765	     12.49125152	      2.56748900	     89.87364643	     -7.08106394	      8.80336651	     36.08438281	     86.33473521	      0.00000000	      0.00000000	     89.92909824	     -7.59983967	     22.66789747	     29.52862338	     78.27305584	      0.00000000	      0.00000000
      3.91666667	    -29.81912653	     -7.81299467	      5.61596041	     -0.30310753	      1.19390517	      0.03769814	     73.74565611	     -8.27487362	     -7.84902485	     50.32878556	      0.87840302	     -7.44628046	    -18.44630805	      0.00000000	     76.72826996	     -3.11305414	     13.32887071	     87.89821207	      1.53411321	      0.73936226	    -16.31507384	      0.00000000	    -47.25046380	     12.70121710	      2.26438275	     89.86908419	     -7.06232577	      8.63087644	     35.90917029	     86.34210836	      0.00000000	      0.00000000	     89.93005559	     -7.65624132	     22.82437780	     29.80807729	     78.27288433	      0.00000000	      0.00000000
      3.92500000	    -29.50407309	     -7.16893316	      6.17547245	     -0.30270319	      1.19375145	      0.03727821	     71.45134419	     -8.82757683	     -8.10593738	     47.28250625	      0.82523541	     -9.44758439	    -17.68788784	      0.00000000	     78.04007419	     -2.27854108	     12.84272616	     90.65375346	      1.58220648	      1.37692555	    -16.19438761	      0.00000000	    -47.41700880	     12.40448326	      1.37400506	     89.86367156	     -7.01628113	      8.54368976	     35.64821197	     86.31484527	      0.00000000	      0.00000000	     89.93104167	     -7.76415896	     22.99840072	     30.03340329	     78.31981746	      0.00000000	      0.00000000
      3.93333333	    -29.02179497	     -7.03409955	      6.76816189	     -0.30191735	      1.19379478	      0.03717394	     68.90013742	     -9.17462091	     -9.02145639	     44.33791081	      0.77384253	    -11.29058402	    -16.86842365	      0.00000000	     79.35251400	     -1.75048154	     12.84281821	     93.35197775	      1.62929938	      2.31965816	    -15.22700191	      0.00000000	    -47.79147490	     12.50529612	      0.88867261	     89.85722049	     -6.96965618	      8.32033164	     35.44597594	     86.29735403	      0.00000000	      0.00000000	     89.93200278	     -7.85316782	     23.22680309	     30.28604356	     78.32742570	      0.00000000	      0.00000000
      3.94166667	    -28.86595334	     -6.38039580	      7.12213934	     -0.30150770	      1.19376239	      0.03688923	     66.71878857	     -9.51406087	     -9.23893064	     41.35066294	      0.72170522	    -13.41875988	    -16.15460004	      0.00000000	     80.76515143	     -1.11279804	     12.25742181	     95.71475670	      1.67053765	      3.07637136	    -15.06058463	      0.00000000	    -47.86278366	     12.07815809	      0.12090384	     89.85108549	     -6.96962563	      8.28246180	     35.19963898	     86.25437427	      0.00000000	      0.00000000	     89.93269407	     -7.94793744	     23.42446153	     30.52899401	     78.37223125	      0.00000000	      0.00000000
      3.95000000	    -28.83377641	     -5.88759714	      7.62933705	     -0.30130718	      1.19382888	      0.03667394	     64.72494543	     -9.94672710	     -9.71843419	     38.60698366	      0.67381898	    -15.60579522	    -15.53055894	      0.00000000	     82.23905680	     -0.44939258	     11.79676743	     97.74656742	      1.70599943	      3.95023217	    -14.49304247	      0.00000000	    -47.82642597	     11.86862359	     -0.63953187	     89.84293409	     -6.95325224	      8.20251286	     35.00213585	     86.19972906	      0.00000000	      0.00000000	     89.93393113	     -8.04714278	     23.66813998	     30.81500924	     78.41468733	      0.00000000	      0.00000000
      3.95833333	    -28.29823294	     -5.70226870	      7.76462305	     -0.29997421	      1.19408665	      0.03700327	     62.22014576	     -9.78528942	    -10.44326828	     36.04343165	      0.62907656	    -17.58137391	    -15.05316683	      0.00000000	     83.52982434	     -0.47103345	     11.56243413	    100.06727063	      1.74650335	      5.52239222	    -13.35969937	      0.00000000	    -48.33818774	     11.64136609	     -0.80412121	     89.83439354	     -7.02047598	      8.22962511	     34.80969947	     86.12196331	      0.00000000	      0.00000000	     89.93491088	     -8.09217141	     23.93966339	     30.97942295	     78.35234548	      0.00000000	      0.00000000
      3.96666667	    -28.40188584	     -5.10549990	      8.23439719	     -0.29989253	      1.19412767	      0.03663095	     60.51094573	    -10.29014897	    -10.92624376	     33.70867403	      0.58832735	    -19.73835888	    -14.53408124	      0.00000000	     85.02037253	      0.18069788	     10.90922061	    101.64543404	      1.77404749	      6.71426203	    -12.92583120	      0.00000000	    -48.18038145	     11.34929972	     -1.61935373	     89.82466457	     -7.08034282	      8.30955615	     34.67373250	     86.20727134	      0.00000000	      0.00000000	     89.93592156	     -8.16453508	     24.14902022	     31.19694437	     78.41172474	      0.00000000	      0.00000000
      3.97500000	    -28.24358434	     -4.78073049	      8.45099443	     -0.29912105	      1.19433160	      0.03668851	     58.55934451	    -10.33081998	    -11.50878843	     31.55873243	      0.55080379	    -21.65966015	    -14.20439594	      0.00000000	     86.29273132	      0.41378658	     10.53697415	    103.17711741	      1.80078041	      8.28018722	    -11.75703031	      0.00000000	    -48.32228552	     11.09925862	     -1.97750206	     89.81505533	     -7.19081079	      8.51066120	     34.44997752	     86.07297574	      0.00000000	      0.00000000	     89.93689201	     -8.19240557	     24.43675657	     31.35186068	     78.28357471	      0.00000000	      0.00000000
      3.98333333	    -28.30765598	     -4.19975336	      8.72132637	     -0.29876428	      1.19447691	      0.03636198	     56.97149208	    -10.66687887	    -11.93605083	     29.69722699	      0.51831439	    -23.44108729	    -13.79975581	      0.00000000	     87.72091016	      0.85745229	      9.80660431	    104.44134573	      1.82284536	      9.43632374	    -11.57161238	      0.00000000	    -48.25220592	     10.71174000	     -2.60325103	     89.80319303	     -7.30277005	      8.52957183	     34.25498485	     86.02310549	      0.00000000	      0.00000000	     89.93793461	     -8.21174284	     24.61553118	     31.50017462	     78.29800707	      0.00000000	      0.00000000
      3.99166667	    -28.39230931	     -3.73953864	      8.85895567	     -0.29840836	      1.19472956	      0.03626085	     55.43917668	    -10.84797510	    -12.52959166	     28.02284962	      0.48909099	    -24.93925068	    -13.40152722	      0.00000000	     89.10786600	      1.08423617	      9.16493075	    105.42992700	      1.84009936	     10.66291459	    -11.03287337	      0.00000000	    -48.19771227	     10.32585950	     -3.03148795	     89.78814804	     -7.42728491	      8.62621262	     34.13868790	     85.99495056	      0.00000000	      0.00000000	     89.93889932	     -8.20879974	     24.78763337	     31.66376983	     78.32041484	      0.00000000	      0.00000000
      4.00000000	    -28.34545764	     -3.37628605	      9.04366717	     -0.29781041	      1.19495774	      0.03629071	     53.98212702	    -10.93844946	    -12.95434771	     26.88938072	      0.46930823	    -25.90101045	    -13.57554231	      0.00000000	     90.32826451	      1.20001906	      8.56346915	    106.21108885	      1.85373320	     12.01352581	    -10.06362942	      0.00000000	    -48.26717376	     10.04925308	     -3.40518563	     89.77202956	     -7.54019594	      8.75633450	     34.03415663	     85.86537613	      0.00000000	      0.00000000	     89.93976276	     -8.21349645	     24.94757973	     31.83534436	     78.30784424	      0.00000000	      0.00000000
      4.00833333	    -28.47443969	     -3.02406570	      9.28052420	     -0.29756287	      1.19516517	      0.03599878	     52.80780937	    -11.13120839	    -13.33928961	     26.04581664	      0.45458526	    -26.51433211	    -13.64003753	      0.00000000	     91.64772568	      1.47840745	      7.99662852	    106.68349949	      1.86197832	     13.04349473	     -9.51964951	      0.00000000	    -48.16699559	      9.85441961	     -3.84031106	     89.75976534	     -7.62937369	      8.83784602	     33.93925855	     85.78797205	      0.00000000	      0.00000000	     89.94043384	     -8.21583747	     25.02745418	     31.94693940	     78.30337479	      0.00000000	      0.00000000
